<svg xmlns="http://www.w3.org/2000/svg" style="display: none;">
    <symbol id="icon-youtube" width="38" height="31" viewBox="0 0 38 31" fill="red">
        <path
            d="M37.1736 5.19531C36.7361 3.34375 35.4514 1.89062 33.8195 1.39844C30.8611 0.5 19 0.5 19 0.5C19 0.5 7.1389 0.5 4.18056 1.39844C2.54862 1.89062 1.2639 3.34375 0.826396 5.19531C0.034729 8.54688 0.034729 15.5312 0.034729 15.5312C0.034729 15.5312 0.034729 22.5156 0.826396 25.8672C1.2639 27.7188 2.54862 29.1094 4.18056 29.6016C7.1389 30.5 19 30.5 19 30.5C19 30.5 30.8611 30.5 33.8195 29.6016C35.4514 29.1094 36.7361 27.7109 37.1736 25.8672C37.9653 22.5156 37.9653 15.5312 37.9653 15.5312C37.9653 15.5312 37.9653 8.54688 37.1736 5.19531ZM15.125 21.875V9.1875L25.0347 15.5312L15.125 21.875Z"
            fill="white"
        />
    </symbol>
</svg>